Coordinates
version=1
nRows=24
nColumns=24
inDegrees=yes

Units are S.I. units (second, meters, Newtons, ...)
Angles are in degrees.

endheader
time	pelvis_tilt	pelvis_list	pelvis_rotation	pelvis_tx	pelvis_ty	pelvis_tz	hip_flexion_r	hip_adduction_r	hip_rotation_r	knee_angle_r	ankle_angle_r	subtalar_angle_r	mtp_angle_r	hip_flexion_l	hip_adduction_l	hip_rotation_l	knee_angle_l	ankle_angle_l	subtalar_angle_l	mtp_angle_l	lumbar_extension	lumbar_bending	lumbar_rotation
      0.01000000	     51.09839986	    -14.31507806	     -2.01462943	      0.43319556	      1.01957411	     -0.34805646	     29.15533891	      2.83578621	      5.58475485	    -27.57051285	      2.61036294	     42.38542698	      0.00000000	     21.74092105	    -26.49232410	      9.62510637	    -67.65920384	     25.17460057	     30.82719797	      0.00000000	      0.00000000	      0.00000000	      0.00000000
      0.02000000	     51.09382855	    -14.32213615	     -1.99478534	      0.43315127	      1.01960171	     -0.34803441	     29.13089182	      2.84507178	      5.64821980	    -27.72227250	      2.63084567	     42.44337012	      0.00000000	     21.74452368	    -26.49541853	      9.64142324	    -67.63186576	     25.17818272	     30.82385924	      0.00000000	      0.00000000	      0.00000000	      0.00000000
      0.03000000	     51.09264693	    -14.32467871	     -1.98692286	      0.43312670	      1.01961560	     -0.34803981	     29.10481148	      2.84952894	      5.69316891	    -27.89702632	      2.66967230	     42.50718015	      0.00000000	     21.74373644	    -26.49308475	      9.64707901	    -67.62214840	     25.17940140	     30.81890207	      0.00000000	      0.00000000	      0.00000000	      0.00000000
      0.04000000	     51.09343549	    -14.32378097	     -1.98713405	      0.43311890	      1.01962582	     -0.34805717	     29.07749925	      2.84967556	      5.72562770	    -28.09032217	      2.72365091	     42.57561114	      0.00000000	     21.73940620	    -26.48723343	      9.64567408	    -67.62303056	     25.17885072	     30.81320289	      0.00000000	      0.00000000	      0.00000000	      0.00000000
      0.05000000	     51.09493975	    -14.32074219	     -1.99093299	      0.43312020	      1.01963842	     -0.34807409	     29.04980901	      2.84663439	      5.75180133	    -28.29739779	      2.78870428	     42.64635755	      0.00000000	     21.73275183	    -26.47985024	      9.64080380	    -67.62741422	     25.17708615	     30.80774766	      0.00000000	      0.00000000	      0.00000000	      0.00000000
      0.06000000	     51.09631854	    -14.31687764	     -1.99467331	      0.43311993	      1.01965425	     -0.34808779	     29.02281347	      2.84214376	      5.77610727	    -28.51465794	      2.86092837	     42.71630934	      0.00000000	     21.72532371	    -26.47259422	      9.63488875	    -67.63047700	     25.17448308	     30.80336494	      0.00000000	      0.00000000	      0.00000000	      0.00000000
      0.07000000	     51.09683498	    -14.31346065	     -1.99662453	      0.43311123	      1.01967121	     -0.34810142	     28.99735665	      2.83838718	      5.80046879	    -28.74046937	      2.93748408	     42.78222560	      0.00000000	     21.71894853	    -26.46684613	      9.62884049	    -67.63047823	     25.17127011	     30.80057720	      0.00000000	      0.00000000	      0.00000000	      0.00000000
      0.08000000	     51.09549683	    -14.31165126	     -1.99730520	      0.43309690	      1.01968471	     -0.34811607	     28.97397333	      2.83774049	      5.82470806	    -28.97501696	      3.01707719	     42.84164959	      0.00000000	     21.71549331	    -26.46398969	      9.62236434	    -67.62819144	     25.16765693	     30.79956432	      0.00000000	      0.00000000	      0.00000000	      0.00000000
      0.09000000	     51.09099700	    -14.31240715	     -1.99892858	      0.43308517	      1.01968957	     -0.34812636	     28.95325875	      2.84236590	      5.84762951	    -29.21936892	      3.09984367	     42.89377249	      0.00000000	     21.71643629	    -26.46560926	      9.61458353	    -67.62558825	     25.16394979	     30.80020387	      0.00000000	      0.00000000	      0.00000000	      0.00000000
      0.10000000	     51.08199225	    -14.31640004	     -2.00424660	      0.43308174	      1.01968504	     -0.34812334	     28.93606250	      2.85369836	      5.86823320	    -29.47443188	      3.18666958	     42.93991635	      0.00000000	     21.72245990	    -26.47328789	      9.60468663	    -67.62451805	     25.16056482	     30.80214646	      0.00000000	      0.00000000	      0.00000000	      0.00000000
      0.11000000	     51.06764840	    -14.32389787	     -2.01527083	      0.43309027	      1.01967694	     -0.34810218	     28.92302493	      2.87199546	      5.88648220	    -29.74043413	      3.27825871	     42.98339497	      0.00000000	     21.73329262	    -26.48793811	      9.59237295	    -67.62587745	     25.15792293	     30.80489509	      0.00000000	      0.00000000	      0.00000000	      0.00000000
      0.12000000	     51.04825678	    -14.33461726	     -2.03225041	      0.43311559	      1.01967302	     -0.34806585	     28.91369274	      2.89603560	      5.90333498	    -30.01710684	      3.37436927	     43.02874663	      0.00000000	     21.74779295	    -26.50898096	      9.57801896	    -67.62941470	     25.15629067	     30.80786828	      0.00000000	      0.00000000	      0.00000000	      0.00000000
      0.13000000	     51.02562651	    -14.34752154	     -2.05321706	      0.43315770	      1.01967504	     -0.34802272	     28.90588231	      2.92315072	      5.92016243	    -30.30430183	      3.47353684	     43.08059702	      0.00000000	     21.76413573	    -26.53392299	      9.56265167	    -67.63398004	     25.15565382	     30.81043825	      0.00000000	      0.00000000	      0.00000000	      0.00000000
      0.14000000	     51.00303032	    -14.36076717	     -2.07441138	      0.43320364	      1.01967776	     -0.34798308	     28.89593170	      2.94976517	      5.93793743	    -30.60253158	      3.57341442	     43.14254667	      0.00000000	     21.78000841	    -26.55869461	      9.54783027	    -67.63790770	     25.15567999	     30.81195701	      0.00000000	      0.00000000	      0.00000000	      0.00000000
      0.15000000	     50.98451912	    -14.37207818	     -2.09154803	      0.43323722	      1.01967797	     -0.34795429	     28.87988381	      2.97222913	      5.95664366	    -30.91301344	      3.67163700	     43.21645046	      0.00000000	     21.79281409	    -26.57875338	      9.53542789	    -67.63941433	     25.15578688	     30.81179577	      0.00000000	      0.00000000	      0.00000000	      0.00000000
      0.16000000	     50.97362150	    -14.37937238	     -2.10122724	      0.43324409	      1.01967845	     -0.34794104	     28.85482815	      2.98759836	      5.97519162	    -31.23725543	      3.76687810	     43.30229442	      0.00000000	     21.80003386	    -26.59049987	      9.52728872	    -67.63708759	     25.15529967	     30.80941521	      0.00000000	      0.00000000	      0.00000000	      0.00000000
      0.17000000	     50.97205866	    -14.38145879	     -2.10188346	      0.43320986	      1.01968248	     -0.34794800	     28.81974325	      2.99422926	      5.99186586	    -31.57649436	      3.85966117	     43.39865073	      0.00000000	     21.79987731	    -26.59224654	      9.52475753	    -67.63041432	     25.15364722	     30.80446627	      0.00000000	      0.00000000	      0.00000000	      0.00000000
      0.18000000	     50.97916742	    -14.37854855	     -2.09414462	      0.43315002	      1.01969455	     -0.34797104	     28.77566012	      2.99212899	      6.00509632	    -31.93137882	      3.95259344	     43.50348294	      0.00000000	     21.79204285	    -26.58434277	      9.52820500	    -67.62007451	     25.15052496	     30.79689275	      0.00000000	      0.00000000	      0.00000000	      0.00000000
      0.19000000	     50.99227769	    -14.37190503	     -2.08035991	      0.43310267	      1.01971783	     -0.34800017	     28.72514220	      2.98289994	      6.01421477	    -32.30220767	      4.04988844	     43.61494116	      0.00000000	     21.77819542	    -26.56866004	      9.53686129	    -67.60774784	     25.14596285	     30.78698761	      0.00000000	      0.00000000	      0.00000000	      0.00000000
      0.20000000	     51.00785303	    -14.36296381	     -2.06363799	      0.43306825	      1.01974444	     -0.34803824	     28.67152139	      2.96923777	      6.01989421	    -32.68950232	      4.15626780	     43.73179557	      0.00000000	     21.76179525	    -26.54787408	      9.54907633	    -67.59543357	     25.14027679	     30.77537122	      0.00000000	      0.00000000	      0.00000000	      0.00000000
      0.21000000	     51.02255677	    -14.35303219	     -2.04716542	      0.43302248	      1.01976241	     -0.34809272	     28.61854662	      2.95421518	      6.02409647	    -33.09433788	      4.27547089	     43.85332909	      0.00000000	     21.74698265	    -26.52487192	      9.56281668	    -67.58467056	     25.13393261	     30.76289541	      0.00000000	      0.00000000	      0.00000000	      0.00000000
      0.22000000	     51.03381251	    -14.34342462	     -2.03357096	      0.43297076	      1.01977185	     -0.34815274	     28.57058516	      2.94060002	      6.02948714	    -33.51811884	      4.40865050	     43.97875751	      0.00000000	     21.73681883	    -26.50228005	      9.57621261	    -67.57611476	     25.12739383	     30.75049777	      0.00000000	      0.00000000	      0.00000000	      0.00000000
      0.23000000	     51.04014474	    -14.33511432	     -2.02408679	      0.43293063	      1.01977910	     -0.34819685	     28.53247996	      2.93049392	      6.03844413	    -33.96202700	      4.55300821	     44.10643552	      0.00000000	     21.73208222	    -26.48196450	      9.58795121	    -67.56947737	     25.12102633	     30.73903474	      0.00000000	      0.00000000	      0.00000000	      0.00000000
      0.24000000	     51.04128994	    -14.32804323	     -2.01831237	      0.43289964	      1.01978081	     -0.34821658	     28.50809290	      2.92525277	      6.05206512	    -34.42657502	      4.70109324	     44.23316657	      0.00000000	     21.73162126	    -26.46469380	      9.59737635	    -67.56360028	     25.11508976	     30.72911922	      0.00000000	      0.00000000	      0.00000000	      0.00000000
